<svg width="403" height="10" viewBox="0 0 403 10" fill="none" xmlns="http://www.w3.org/2000/svg">
<path d="M194.615 2.56438C192.097 1.49427 189.309 0.311523 184.708 0.311523C180.107 0.311523 177.32 1.49427 174.801 2.56438C172.618 3.46553 170.838 4.25403 167.917 4.25403C164.894 4.25403 163.215 3.55001 161.032 2.56438C158.513 1.52244 155.759 0.311523 151.125 0.311523C146.49 0.311523 143.737 1.49427 141.218 2.56438C139.035 3.49369 137.289 4.25403 134.333 4.25403V9.68905C138.867 9.68905 141.722 8.47814 144.24 7.43619C146.423 6.50689 148.17 5.74655 151.125 5.74655C154.08 5.74655 155.827 6.45056 158.01 7.43619C160.528 8.5063 163.282 9.68905 167.917 9.68905C172.551 9.68905 175.305 8.47814 177.824 7.43619C180.007 6.53505 181.787 5.74655 184.708 5.74655C187.731 5.74655 189.41 6.45056 191.593 7.43619C194.112 8.5063 196.899 9.68905 201.5 9.68905V4.19771C198.477 4.19771 196.798 3.49369 194.615 2.56438Z" fill="#FF5C13"/>
<path d="M261.782 2.56438C259.263 1.49427 256.476 0.311523 251.875 0.311523C247.274 0.311523 244.487 1.49427 241.968 2.56438C239.785 3.46553 238.005 4.25403 235.083 4.25403C232.061 4.25403 230.382 3.55001 228.199 2.56438C225.68 1.52244 222.926 0.311523 218.292 0.311523C213.657 0.311523 210.903 1.49427 208.385 2.56438C206.202 3.49369 204.455 4.25403 201.5 4.25403V9.68905C206.034 9.68905 208.888 8.47814 211.407 7.43619C213.59 6.50689 215.336 5.74655 218.292 5.74655C221.247 5.74655 222.993 6.45056 225.176 7.43619C227.695 8.5063 230.449 9.68905 235.083 9.68905C239.718 9.68905 242.472 8.47814 244.99 7.43619C247.173 6.53505 248.953 5.74655 251.875 5.74655C254.898 5.74655 256.577 6.45056 258.76 7.43619C261.278 8.5063 264.066 9.68905 268.667 9.68905V4.19771C265.644 4.19771 263.965 3.49369 261.782 2.56438Z" fill="#FF5C13"/>
<path d="M60.2821 2.56438C57.7634 1.49427 54.976 0.311523 50.375 0.311523C45.7741 0.311523 42.9867 1.49427 40.4679 2.56438C38.285 3.46553 36.5051 4.25403 33.5834 4.25403C30.5609 4.25403 28.8817 3.55001 26.6988 2.56438C24.18 1.52244 21.4262 0.311523 16.7917 0.311523C12.1572 0.311523 9.40334 1.49427 6.88459 2.56438C4.70167 3.49369 2.95534 4.25403 0 4.25403V9.68905C4.53375 9.68905 7.38834 8.47814 9.90709 7.43619C12.09 6.50689 13.8363 5.74655 16.7917 5.74655C19.747 5.74655 21.4934 6.45056 23.6763 7.43619C26.195 8.5063 28.9489 9.68905 33.5834 9.68905C38.2179 9.68905 40.9717 8.47814 43.4905 7.43619C45.6734 6.53505 47.4533 5.74655 50.375 5.74655C53.3975 5.74655 55.0767 6.45056 57.2596 7.43619C59.7784 8.5063 62.5658 9.68905 67.1667 9.68905V4.19771C64.1442 4.19771 62.465 3.49369 60.2821 2.56438Z" fill="#FF5C13"/>
<path d="M127.449 2.56438C124.93 1.49427 122.143 0.311523 117.542 0.311523C112.941 0.311523 110.153 1.49427 107.635 2.56438C105.452 3.46553 103.672 4.25403 100.75 4.25403C97.7275 4.25403 96.0483 3.55001 93.8654 2.56438C91.3466 1.52244 88.5928 0.311523 83.9583 0.311523C79.3238 0.311523 76.57 1.49427 74.0512 2.56438C71.8683 3.49369 70.122 4.25403 67.1666 4.25403V9.68905C71.7004 9.68905 74.555 8.47814 77.0737 7.43619C79.2566 6.50689 81.003 5.74655 83.9583 5.74655C86.9136 5.74655 88.66 6.45056 90.8429 7.43619C93.3616 8.5063 96.1155 9.68905 100.75 9.68905C105.384 9.68905 108.138 8.47814 110.657 7.43619C112.84 6.53505 114.62 5.74655 117.542 5.74655C120.564 5.74655 122.243 6.45056 124.426 7.43619C126.945 8.5063 129.732 9.68905 134.333 9.68905V4.19771C131.311 4.19771 129.632 3.49369 127.449 2.56438Z" fill="#FF5C13"/>
<path d="M328.949 2.56438C326.43 1.49427 323.642 0.311523 319.042 0.311523C314.441 0.311523 311.653 1.49427 309.134 2.56438C306.952 3.46553 305.172 4.25403 302.25 4.25403C299.227 4.25403 297.548 3.55001 295.365 2.56438C292.847 1.52244 290.093 0.311523 285.458 0.311523C280.824 0.311523 278.07 1.49427 275.551 2.56438C273.368 3.49369 271.622 4.25403 268.667 4.25403V9.68905C273.2 9.68905 276.055 8.47814 278.574 7.43619C280.757 6.50689 282.503 5.74655 285.458 5.74655C288.414 5.74655 290.16 6.45056 292.343 7.43619C294.862 8.5063 297.615 9.68905 302.25 9.68905C306.884 9.68905 309.638 8.47814 312.157 7.43619C314.34 6.53505 316.12 5.74655 319.042 5.74655C322.064 5.74655 323.743 6.45056 325.926 7.43619C328.445 8.5063 331.232 9.68905 335.833 9.68905V4.19771C332.811 4.19771 331.132 3.49369 328.949 2.56438Z" fill="#FF5C13"/>
<path d="M396.115 2.56438C393.597 1.49427 390.809 0.311523 386.208 0.311523C381.607 0.311523 378.82 1.49427 376.301 2.56438C374.118 3.46553 372.338 4.25403 369.417 4.25403C366.394 4.25403 364.715 3.55001 362.532 2.56438C360.013 1.52244 357.259 0.311523 352.625 0.311523C347.99 0.311523 345.237 1.49427 342.718 2.56438C340.535 3.49369 338.789 4.25403 335.833 4.25403V9.68905C340.367 9.68905 343.222 8.47814 345.74 7.43619C347.923 6.50689 349.67 5.74655 352.625 5.74655C355.58 5.74655 357.327 6.45056 359.51 7.43619C362.028 8.5063 364.782 9.68905 369.417 9.68905C374.051 9.68905 376.805 8.47814 379.324 7.43619C381.507 6.53505 383.287 5.74655 386.208 5.74655C389.231 5.74655 390.91 6.45056 393.093 7.43619C395.612 8.5063 398.399 9.68905 403 9.68905V4.19771C399.977 4.19771 398.298 3.49369 396.115 2.56438Z" fill="#FF5C13"/>
</svg>
